<mxfile host="app.diagrams.net" modified="2023-11-02T03:08:05.874Z" agent="Mozilla/5.0 (Windows NT 10.0; Win64; x64) AppleWebKit/537.36 (KHTML, like Gecko) Chrome/115.0.0.0 Safari/537.36" version="22.0.8" etag="5nLQpM36sbS90JqxGXyH" type="github">
  <diagram name="第 1 页" id="0i_YJYlvbd3N0-5sLxfa">
    <mxGraphModel>
      <root>
        <mxCell id="0" />
        <mxCell id="1" parent="0" />
      </root>
    </mxGraphModel>
  </diagram>
</mxfile>
